<svg viewBox="0 0 16 16" fill="none" xmlns="http://www.w3.org/2000/svg">
<g id="Icon">
<path id="Vector" d="M9.33133 2.66667C9.57186 2.66666 9.80791 2.73172 10.0145 2.85496C10.221 2.97819 10.3904 3.155 10.5047 3.36667L10.8287 3.96667C10.9429 4.17833 11.1123 4.35514 11.3189 4.47838C11.5254 4.60161 11.7615 4.66667 12.002 4.66667H13.3333C13.687 4.66667 14.0261 4.80714 14.2761 5.05719C14.5262 5.30724 14.6667 5.64638 14.6667 6V12C14.6667 12.3536 14.5262 12.6928 14.2761 12.9428C14.0261 13.1929 13.687 13.3333 13.3333 13.3333H2.66667C2.31304 13.3333 1.97391 13.1929 1.72386 12.9428C1.47381 12.6928 1.33333 12.3536 1.33333 12V6C1.33333 5.64638 1.47381 5.30724 1.72386 5.05719C1.97391 4.80714 2.31304 4.66667 2.66667 4.66667H3.998C4.23828 4.66668 4.4741 4.60176 4.68052 4.47878C4.88694 4.35579 5.05629 4.17931 5.17067 3.968L5.49667 3.36533C5.61104 3.15402 5.78039 2.97754 5.98681 2.85456C6.19323 2.73157 6.42905 2.66665 6.66933 2.66667H9.33133Z" stroke="var(--stroke-0, #D1D5DC)" stroke-width="1.33333" stroke-linecap="round" stroke-linejoin="round"/>
<path id="Vector_2" d="M8 10.6667C9.10457 10.6667 10 9.77124 10 8.66667C10 7.5621 9.10457 6.66667 8 6.66667C6.89543 6.66667 6 7.5621 6 8.66667C6 9.77124 6.89543 10.6667 8 10.6667Z" stroke="var(--stroke-0, #D1D5DC)" stroke-width="1.33333" stroke-linecap="round" stroke-linejoin="round"/>
</g>
</svg>
